<svg version="1.1" id="Layer_1" xmlns="http://www.w3.org/2000/svg" xmlns:xlink="http://www.w3.org/1999/xlink" x="0px" y="0px" viewBox="0 0 490 490" style="enable-background:new 0 0 490 490;" xml:space="preserve"><g><g><g><path d="M420,55H310V20c0-11.028-8.972-20-20-20h-90c-11.028,0-20,8.972-20,20v35H70c-11.028,0-20,8.972-20,20v40 c0,5.522,4.478,10,10,10h30v355c0,5.522,4.478,10,10,10h285c5.522,0,10-4.478,10-10V125h35c5.522,0,10-4.478,10-10V75 C440,63.972,431.028,55,420,55z M200,20h90v35h-90V20z M420,105h-35c-5.522,0-10,4.478-10,10v355H110V125h235v-20H70V75h350V105z " fill="#000000" style="fill: rgb(255, 255, 255);"></path><path d="M250,145h-10c-11.028,0-20,8.972-20,20v265c0,11.028,8.972,20,20,20h10c11.028,0,20-8.972,20-20V165 C270,153.972,261.028,145,250,145z M240,430V165h10l0.002,265H240z" fill="#000000" style="fill: rgb(255, 255, 255);"></path><path d="M330,145h-10c-11.028,0-20,8.972-20,20v265c0,11.028,8.972,20,20,20h10c11.028,0,20-8.972,20-20V165 C350,153.972,341.028,145,330,145z M320,430V165h10l0.002,265H320z" fill="#000000" style="fill: rgb(255, 255, 255);"></path><path d="M170,145h-10c-11.028,0-20,8.972-20,20v265c0,11.028,8.972,20,20,20h10c11.028,0,20-8.972,20-20V165 C190,153.972,181.028,145,170,145z M160,430V165h10l0.002,265H160z" fill="#000000" style="fill: rgb(255, 255, 255);"></path></g></g></g></svg>
